<svg xmlns="http://www.w3.org/2000/svg" width="330.47946" height="325.95135">
 <g>
  <title>Layer 1</title>
  <path d="m227.127106,51.99802c-1.88858,-23.292299 -78.060669,-85.614929 -144.789963,-22.662769c-66.729283,62.952148 -72.394983,33.364639 -78.690193,34.62368c-6.29522,1.259026 6.26581,14.893372 23.92181,12.590416c43.436993,-5.66568 72.394978,-59.804537 112.684353,-59.175016c40.597977,0.63434 62.322647,35.88273 62.322647,35.88273l24.551346,-1.259041z" id="path3264" stroke-miterlimit="4" stroke-width="4" stroke="#000000" fill-rule="evenodd" fill="#ffffaa"/>
  <path d="m140.1875,11.1875c-18.054337,0.20866 -37.58976,7.31967 -56.28125,26.0625c-17.209663,17.256939 -29.879681,27.168007 -39.34375,32.625l0,1.9375c34.527863,-14.648159 60.885757,-54.981279 95.6875,-54.4375c40.597977,0.63434 62.3125,35.875 62.3125,35.875l9.4375,-0.46875c-7.283417,-16.490398 -36.785126,-41.99858 -71.8125,-41.59375z" id="path2407" stroke-miterlimit="4" stroke-width="4" fill-rule="evenodd" fill-opacity="0.313725" fill="#000000"/>
  <path d="m317.148682,151.462418c0,56.989334 -61.817688,161.787033 -103.241547,161.787033c-42.584839,0 -103.241531,-104.797699 -103.241531,-161.787033c0,-56.989334 46.252213,-103.241547 103.241531,-103.241547c56.989349,0 103.241547,46.252213 103.241547,103.241547z" id="path2383" stroke-miterlimit="4" stroke-linecap="round" stroke-width="4" stroke="#000000" fill-rule="nonzero" fill="#ffffaa"/>
  <path d="m315.760712,134.607254c0.248322,2.918793 0.375,5.861053 0.375,8.84375c0,56.989334 -61.794891,161.812515 -103.218735,161.812515c-38.83992,-0.000031 -92.731384,-87.179626 -101.906258,-145.750015c5.111038,58.24704 62.258186,153.749985 102.906258,153.750015c41.423843,0 103.218735,-104.823181 103.218735,-161.812515c0,-5.738892 -0.473206,-11.358887 -1.375,-16.84375z" id="path3397" stroke-miterlimit="4" stroke-linecap="round" stroke-width="4" fill-rule="nonzero" fill-opacity="0.313725" fill="#000000"/>
  <path d="m285.666962,233.044754c24.030212,-2.364639 42.812531,-22.632828 42.8125,-47.28125c0,-26.235931 -21.295288,-47.531281 -47.53125,-47.53125c-26.235931,0 -47.53125,21.295303 -47.531235,47.53125c0,1.844025 0.107788,3.67926 0.3125,5.46875" id="path2386" stroke-miterlimit="4" stroke-linecap="round" stroke-width="4" stroke="#000000" fill-rule="nonzero" fill="#ffffaa"/>
  <path d="m191.854477,190.763504c0.247009,-1.961807 0.375,-3.971527 0.375,-6c0,-26.235931 -21.264084,-47.531281 -47.5,-47.53125c-26.235947,0 -47.531265,21.295303 -47.531258,47.53125c0,25.2565 19.71447,45.928955 44.593758,47.4375" id="path2388" stroke-miterlimit="4" stroke-linecap="round" stroke-width="4" stroke="#000000" fill-rule="nonzero" fill="#ffffaa"/>
  <path d="m225.321869,291.604034c0,6.127167 -7.334488,13.46167 -11.099976,13.46167c-4.237808,0 -11.09996,-7.334503 -11.09996,-13.46167c0,-6.127197 4.972794,-5.431915 11.09996,-5.431915c6.127182,0 11.099976,-0.695282 11.099976,5.431915z" id="path2390" stroke-miterlimit="4" stroke-linecap="round" stroke-width="2" fill-rule="nonzero" fill="#000000"/>
  <path d="m191.873901,250.612076c0.001907,5.738419 -3.521729,10.391678 -7.869034,10.391678c-4.347275,0 -7.870911,-4.653259 -7.869003,-10.391678c-0.001907,-5.738419 3.521729,-10.391663 7.869003,-10.391663c4.347305,0 7.870941,4.653244 7.869034,10.391663z" id="path2397" stroke-miterlimit="4" stroke-linecap="round" stroke-width="2" stroke="#000000" fill-rule="nonzero" fill="#000000"/>
  <path d="m248.530838,250.612076c0.001907,5.738419 -3.521729,10.391678 -7.869034,10.391678c-4.34729,0 -7.870911,-4.653259 -7.869003,-10.391678c-0.001907,-5.738419 3.521713,-10.391663 7.869003,-10.391663c4.347305,0 7.870941,4.653244 7.869034,10.391663z" id="path2399" stroke-miterlimit="4" stroke-linecap="round" stroke-width="2" stroke="#000000" fill-rule="nonzero" fill="#000000"/>
  <path d="m187.152496,248.196701c0.000809,1.969864 -0.985886,3.567459 -2.203323,3.567459c-1.217453,0 -2.204147,-1.597595 -2.203339,-3.567459c-0.000809,-1.969864 0.985886,-3.567459 2.203339,-3.567459c1.217438,0 2.204132,1.597595 2.203323,3.567459l0,0z" id="path2401" stroke-miterlimit="4" stroke-linecap="round" stroke-width="2" fill-rule="nonzero" fill="#ffffff"/>
  <path d="m242.235626,249.140976c0.000809,1.969864 -0.985886,3.567459 -2.203323,3.567459c-1.217453,0 -2.204147,-1.597595 -2.203339,-3.567459c-0.000809,-1.969849 0.985886,-3.567459 2.203339,-3.567459c1.217438,0 2.204132,1.59761 2.203323,3.567459l0,0z" id="path2403" stroke-miterlimit="4" stroke-linecap="round" stroke-width="2" fill-rule="nonzero" fill="#ffffff"/>
  <path d="m281.073212,144.982254c-17.82959,0.25116 -34.357574,14.095062 -38.624985,31.25c8.380707,-5.513184 18.898087,-8.8125 30.312485,-8.8125c22.940491,-0.000015 42.241058,13.271179 47.875,31.25c8.972229,-23.956909 -11.561615,-53.86142 -37.5,-53.65625c-0.690216,-0.031281 -1.375458,-0.040924 -2.0625,-0.03125z" id="path2427" stroke-miterlimit="4" stroke-linecap="round" stroke-width="2" fill-rule="nonzero" fill-opacity="0.313725" fill="#000000"/>
  <g transform="matrix(1.3917402,0,0,1.4058212,-239.24654,-659.88464)" id="g3221" stroke-miterlimit="4" stroke-linecap="round" stroke-width="2.85967" stroke="#000000">
   <path d="m340.571167,672.760681c32.735107,-15.108521 47.843628,-1.259033 47.843628,-1.259033" id="path2445" stroke-miterlimit="4" stroke-linecap="round" stroke-width="2.85967" stroke="#000000" fill-rule="evenodd" fill-opacity="0.75" fill="none"/>
   <path d="m337.423553,678.426392c23.921814,-15.108521 44.696014,9.44281 44.696014,9.44281" id="path2447" stroke-miterlimit="4" stroke-linecap="round" stroke-width="2.85967" stroke="#000000" fill-rule="evenodd" fill-opacity="0.75" fill="none"/>
   <path d="m337.423553,681.573975c25.180878,-12.590454 29.587524,18.256165 29.587524,18.256165" id="path2449" stroke-miterlimit="4" stroke-linecap="round" stroke-width="2.85967" stroke="#000000" fill-rule="evenodd" fill-opacity="0.75" fill="none"/>
  </g>
  <g transform="matrix(-1.3917402,0,0,1.4058212,667.06082,-659.88464)" id="g3384" stroke-miterlimit="4" stroke-linecap="round" stroke-width="2.85967" stroke="#000000">
   <path d="m340.571167,672.760681c32.735107,-15.108521 47.843628,-1.259033 47.843628,-1.259033" id="path3386" stroke-miterlimit="4" stroke-linecap="round" stroke-width="2.85967" stroke="#000000" fill-rule="evenodd" fill-opacity="0.75" fill="none"/>
   <path d="m337.423553,678.426392c23.921814,-15.108521 44.696014,9.44281 44.696014,9.44281" id="path3388" stroke-miterlimit="4" stroke-linecap="round" stroke-width="2.85967" stroke="#000000" fill-rule="evenodd" fill-opacity="0.75" fill="none"/>
   <path d="m337.423553,681.573975c25.180878,-12.590454 29.587524,18.256165 29.587524,18.256165" id="path3390" stroke-miterlimit="4" stroke-linecap="round" stroke-width="2.85967" stroke="#000000" fill-rule="evenodd" fill-opacity="0.75" fill="none"/>
  </g>
  <path d="m145.557755,144.982254c17.82959,0.25116 34.35759,14.095062 38.625,31.25c-8.380722,-5.513184 -18.898102,-8.8125 -30.3125,-8.8125c-22.940491,-0.000015 -42.241043,13.271179 -47.875008,31.25c-8.972229,-23.956909 11.561615,-53.86142 37.500008,-53.65625c0.690231,-0.031281 1.375473,-0.040924 2.0625,-0.03125z" id="path3405" stroke-miterlimit="4" stroke-linecap="round" stroke-width="2" fill-rule="nonzero" fill-opacity="0.313725" fill="#000000"/>
 </g>
</svg>